<svg width="56" height="45" viewBox="0 0 56 45" fill="none" xmlns="http://www.w3.org/2000/svg">
<path fill-rule="evenodd" clip-rule="evenodd" d="M25.827 36.9182L6.98302 17.567C6.15422 16.6464 6.0394 15.298 6.703 14.2557L12.9806 6.70469C13.493 5.90291 14.389 5.52891 15.3522 5.52891H40.6362C41.5798 5.52891 42.459 5.88128 42.977 6.66094L49.1649 13.8072C49.8565 14.844 49.7613 16.1786 48.9353 17.1131L30.027 36.9127C28.9182 38.1651 26.947 38.1623 25.827 36.9182ZM42.2798 0H13.8037C11.8773 0 10.0853 0.86276 9.06054 2.47461L0.856566 13.1332C-0.467834 15.2178 -0.238265 17.8845 1.41933 19.723L23.7914 42.9529C26.0342 45.4357 29.971 45.4113 32.1886 42.9064L54.6166 19.1461C56.2658 17.2827 56.4617 14.5615 55.0925 12.4879L46.9754 2.39668C45.9422 0.82907 44.1754 0 42.2798 0Z" fill="white"/>
</svg>
